# xmcd
#
# Track frame offsets: 
#        150
#        16160
#        36537
#        59165
#        76494
#        93051
#        115595
#        132649
#        166915
#        186277
#        201264
#        214212
#        229415
#
# Disc length: 3176 seconds
#
# Revision: 0
# Processed by: cddbd v1.5.2PL0 Copyright (c) Steve Scherf et al.
# Submitted via: ExactAudioCopy v1.3
#
DISCID=bb0c660d
DTITLE=GProject Blues Band - When I'm Gone
DYEAR=2019
DGENRE=Electric Blues
TTITLE0=When I'm Gone
TTITLE1=Ain't Funny At All
TTITLE2=Mojo Working
TTITLE3=Someday Baby
TTITLE4=Can't Take It With You
TTITLE5=Hell's Back Door
TTITLE6=Messin' With The Kid
TTITLE7=The Old Have Moved On
TTITLE8=The Date
TTITLE9=My Way Home
TTITLE10=Take Care Of Me
TTITLE11=I'm Done
TTITLE12=Out Take
EXTD=
EXTT0=
EXTT1=
EXTT2=
EXTT3=
EXTT4=
EXTT5=
EXTT6=
EXTT7=
EXTT8=
EXTT9=
EXTT10=
EXTT11=
EXTT12=
PLAYORDER=
